<svg xmlns="http://www.w3.org/2000/svg" viewBox="-269 -169 1002 290">
	<path d="M-124-168A24 24 90 00-124 120L-76 120-76 60-124 60A24 24 90 01-124-108L-76-108-76-168-124-168M-24-168-24 120 136 120 136 64 36 64 36-168-24-168M240-168 240 120 180 120 176-168 240-168M312 120M348 120 348-48 372 60 416 60 440-48 440 120 500 120 500-168 432-168 396-40 388-40 356-168 352-168 288-168 288 120 348 120M548 120 548-168 608-168 608 120 548 120M608-168 732 120 676 120 608-33M641 41 656 75 608 75 608 41Z" stroke="#779ecb" stroke-width="50" fill="#fff"/>
</svg>