<svg xmlns="http://www.w3.org/2000/svg" viewBox="-282.5 -183 1032 317">
	<path d="M-124-173A24 24 90 00-124 124C-108 124-92 124-76 120L-76 60C-92 60-107 65-124 65A24 24 90 01-124-113C-105-113-91-113-76-108L-76-168C-91-173-108-173-124-173M-24-168-24 120 136 120 136 64 36 64 36-168-24-168M240-168 240 120 180 120 176-168 240-168M312 120M348 120 348-48 372 60 416 60 440-48 440 120 500 120 500-168 432-168 396-40 388-40 356-168 352-168 288-168 288 120 348 120M548 120 548-168 608-168 608-168 608-168 608-168 608-168 739 119 679 119 655 64 608 64 608 120ZM608 4 629 4 608-42 608 4" stroke="#779ecb" stroke-width="10" fill="#fff"/>
</svg>